<svg width="345" height="357" viewBox="0 0 345 357" fill="none" xmlns="http://www.w3.org/2000/svg">
<path fill-rule="evenodd" clip-rule="evenodd" d="M131.195 287.031L130.659 219.132H63.2961C58.1969 219.132 53.9028 214.838 53.9028 209.739V145.865C53.9028 140.766 58.1969 136.472 63.2961 136.472H130.39L131.195 68.5725C131.195 63.4733 135.489 59.1793 140.589 59.1793H204.194C209.293 59.1793 213.587 63.4733 213.587 68.5725C213.587 73.6717 209.562 77.9657 204.194 77.9657H149.713L148.908 145.865C148.908 150.964 144.614 155.258 139.515 155.258H72.6892V200.346H140.052C145.151 200.346 149.445 204.64 149.445 209.739L149.982 277.638H195.069L195.606 209.739C195.606 204.64 199.9 200.346 204.999 200.346H272.362V155.258H204.999C199.9 155.258 195.606 151.233 195.606 145.865L195.069 107.219C195.069 102.12 199.095 97.8256 204.462 97.8256C209.562 97.8256 213.856 101.851 213.856 107.219L214.124 136.74H281.487C286.586 136.74 290.88 141.034 290.88 146.133V210.007C290.88 215.106 286.586 219.4 281.487 219.4H214.124L213.587 287.3C213.587 292.131 209.562 296.425 204.194 296.425H140.589C135.489 296.425 131.195 292.131 131.195 287.031H131.195ZM90.9756 96.3317C100.677 86.6303 111.693 78.9275 124.022 73.2236L123.994 75.605L123.905 83.1375C114.066 88.1753 105.179 94.6624 97.2426 102.599C89.2811 110.56 82.7781 119.479 77.7335 129.355H67.8786C73.5814 117.034 81.2804 106.027 90.9756 96.3318V96.3317ZM253.92 96.3317C263.685 106.097 271.426 117.194 277.141 129.623H267.299C262.236 119.64 255.687 110.632 247.654 102.599C239.128 94.0735 229.505 87.2205 218.785 82.0399L218.619 76.5721L219.609 74.4235L220.101 72.8697C232.744 78.6075 244.017 86.4282 253.92 96.3318V96.3317ZM253.92 259.276C244.185 269.012 233.126 276.735 220.743 282.445L220.822 272.558C230.728 267.508 239.671 260.992 247.654 253.01C255.544 245.119 262.002 236.289 267.027 226.518H276.894C271.204 238.731 263.546 249.651 253.92 259.276H253.92ZM90.9756 259.276C81.2792 249.58 73.5795 238.571 67.8765 226.25H77.7312C82.7761 236.127 89.2799 245.047 97.2426 253.01C105.195 260.962 114.101 267.459 123.963 272.501L124.029 280.87L124.041 282.393C111.704 276.688 100.682 268.983 90.9756 259.276L90.9756 259.276Z" fill="#04182D"/>
<path d="M41.5201 118.803L39.0373 125.931L24.3148 127.373L22.7916 131.746L35.4729 136.163L33.2338 142.591L0.43729 131.167L4.73282 118.836C5.16947 117.582 5.8482 116.478 6.76897 115.524C7.68976 114.57 8.75399 113.837 9.96171 113.326C11.1694 112.815 12.4718 112.525 13.8688 112.456C15.2659 112.387 16.664 112.596 18.0634 113.084C19.8125 113.693 21.2886 114.64 22.4917 115.926C23.6948 117.211 24.5191 118.716 24.9645 120.44L41.5201 118.803ZM15.8547 119.425C15.4174 119.272 14.9522 119.2 14.459 119.208C13.9659 119.216 13.4987 119.29 13.0575 119.431C12.6163 119.571 12.2229 119.786 11.8773 120.074C11.5317 120.362 11.2929 120.696 11.1609 121.075L9.10455 126.978L16.3198 129.492L18.3762 123.588C18.5082 123.209 18.5283 122.799 18.4366 122.359C18.3449 121.918 18.1771 121.508 17.9333 121.129C17.6894 120.75 17.384 120.407 17.0172 120.099C16.6503 119.792 16.2628 119.567 15.8547 119.425V119.425Z" fill="#04182D"/>
<path d="M58.364 90.6124L47.5571 106.949L18.592 87.7876L29.3989 71.4513L34.7671 75.0025L27.7925 85.5458L34.4737 89.9656L40.6308 80.6581L45.497 83.8772L39.3399 93.1846L46.0211 97.6044L52.9958 87.0612L58.364 90.6124Z" fill="#04182D"/>
<path d="M76.0254 57.9932C77.098 59.1457 77.8556 60.4015 78.2983 61.7608C78.7409 63.12 78.9097 64.5022 78.8047 65.9072C78.6996 67.3123 78.3287 68.6696 77.6919 69.9792C77.0551 71.2887 76.183 72.4588 75.0757 73.4893C74.0588 74.4357 72.9738 75.1503 71.8207 75.6331C70.6675 76.1159 69.4838 76.3847 68.2695 76.4394C67.0553 76.4941 65.832 76.3463 64.5995 75.9963C63.367 75.6462 62.1848 75.1123 61.0529 74.3946L63.6392 68.0657C64.6854 68.7367 65.8012 69.1426 66.9866 69.2835C68.172 69.4243 69.2618 69.0321 70.2561 68.1067C70.5951 67.7912 70.8988 67.3926 71.1673 66.9108C71.4358 66.4289 71.6227 65.9387 71.728 65.4401C71.8333 64.9415 71.8404 64.4394 71.7493 63.9337C71.6583 63.4281 71.434 62.9832 71.0765 62.599C70.5717 62.0566 69.9029 61.8251 69.07 61.9044C68.2372 61.9837 67.3014 62.1904 66.2628 62.5244C65.2242 62.8585 64.0968 63.233 62.8805 63.648C61.6642 64.063 60.4212 64.3133 59.1512 64.3987C57.8812 64.4842 56.5985 64.318 55.3029 63.9001C54.0074 63.4822 52.7497 62.618 51.5299 61.3073C50.5835 60.2904 49.855 59.1338 49.3446 57.8377C48.8341 56.5416 48.5701 55.227 48.5524 53.894C48.5348 52.5609 48.7781 51.2591 49.2824 49.9885C49.7868 48.7178 50.57 47.5883 51.6321 46.5999C53.3948 44.9594 55.3662 44.0418 57.5466 43.8471C59.7269 43.6524 61.868 44.0951 63.9698 45.1754L61.3449 51.6667C60.5963 51.2248 59.7913 50.9829 58.93 50.9411C58.0687 50.8992 57.3104 51.1832 56.6551 51.7931C55.932 52.4662 55.5588 53.2773 55.5356 54.2266C55.5125 55.176 55.8269 56.0009 56.4788 56.7014C56.9836 57.2438 57.6419 57.464 58.4537 57.3621C59.2655 57.2602 60.1855 57.0366 61.2136 56.6913C62.2417 56.3459 63.3639 55.9658 64.5801 55.5507C65.7964 55.1357 67.0447 54.8911 68.3252 54.817C69.6057 54.7428 70.8989 54.9203 72.205 55.3495C73.5111 55.7787 74.7845 56.6599 76.0254 57.9931L76.0254 57.9932Z" fill="#04182D"/>
<path d="M131.204 4.43652L128.622 41.9622L125.112 43.1468L100.273 14.876L107.6 12.4031L122.439 29.4361L123.921 6.8946L131.204 4.43652Z" fill="#04182D"/>
<path d="M178.04 34.2604L170.836 34.7948L167.572 28.3506L155.288 29.2619L153.057 36.1138L145.761 36.6551L157.691 0.945278L161.016 0.698608L178.04 34.2604ZM164.845 22.8881L160.327 13.9367L157.041 23.4671L164.845 22.8881Z" fill="#04182D"/>
<path d="M220.015 35.4916C218.464 36.7937 217.001 37.7676 215.626 38.4131C214.251 39.0586 212.941 39.4814 211.696 39.6813C210.451 39.8812 209.251 39.9095 208.097 39.766C206.944 39.6226 205.824 39.4313 204.739 39.1923C202.387 38.6745 200.28 37.7284 198.417 36.3542C196.555 34.9799 195.027 33.3396 193.835 31.4333C192.643 29.527 191.827 27.4191 191.387 25.1095C190.947 22.8 190.993 20.4393 191.524 18.0275C192.049 15.6458 192.997 13.4918 194.37 11.5655C195.742 9.63921 197.37 8.06152 199.252 6.83241C201.135 5.6033 203.21 4.75638 205.478 4.29164C207.746 3.82689 210.055 3.85344 212.407 4.37128C213.462 4.60365 214.588 4.94637 215.784 5.39946C216.98 5.85255 218.136 6.45471 219.25 7.20597C220.365 7.95723 221.399 8.89614 222.352 10.0227C223.305 11.1493 224.066 12.5023 224.635 14.0816L218.771 17.6739C218.404 16.6132 217.891 15.7101 217.234 14.9647C216.576 14.2193 215.875 13.5986 215.131 13.1028C214.386 12.607 213.634 12.22 212.873 11.9419C212.113 11.6638 211.446 11.4616 210.873 11.3355C209.456 11.0235 208.068 11.0102 206.709 11.2958C205.351 11.5813 204.107 12.0977 202.978 12.8448C201.85 13.592 200.874 14.539 200.053 15.6857C199.231 16.8324 198.665 18.1142 198.353 19.5312C198.041 20.9482 198.016 22.3495 198.28 23.7352C198.544 25.121 199.031 26.3899 199.742 27.5421C200.452 28.6942 201.364 29.6852 202.477 30.5152C203.59 31.3451 204.855 31.9161 206.272 32.2282C206.845 32.3543 207.491 32.4728 208.209 32.5836C208.928 32.6944 209.701 32.6987 210.53 32.5967C211.358 32.4947 212.237 32.2377 213.165 31.8257C214.093 31.4138 215.054 30.7481 216.047 29.8287L220.015 35.4916Z" fill="#04182D"/>
<path d="M259.603 55.6727C257.738 56.4626 256.054 56.9644 254.55 57.1781C253.046 57.3919 251.669 57.4118 250.42 57.2376C249.171 57.0635 248.016 56.7386 246.955 56.263C245.894 55.7875 244.88 55.2762 243.913 54.7294C241.816 53.5445 240.08 52.0219 238.702 50.1617C237.324 48.3015 236.345 46.2853 235.765 44.1131C235.184 41.9409 235.022 39.6863 235.279 37.3494C235.537 35.0125 236.273 32.769 237.488 30.6191C238.688 28.496 240.227 26.715 242.104 25.2761C243.981 23.8372 246 22.8064 248.16 22.1837C250.321 21.5609 252.553 21.36 254.857 21.5809C257.162 21.8018 259.362 22.5047 261.458 23.6896C262.399 24.2212 263.374 24.8791 264.385 25.6632C265.396 26.4472 266.324 27.3619 267.169 28.4071C268.014 29.4523 268.727 30.6532 269.308 32.0098C269.889 33.3664 270.219 34.8831 270.3 36.5598L263.64 38.2738C263.6 37.1521 263.375 36.1384 262.965 35.2328C262.555 34.3273 262.067 33.5283 261.501 32.836C260.935 32.1437 260.329 31.553 259.683 31.064C259.038 30.575 258.46 30.1861 257.949 29.8975C256.686 29.1836 255.363 28.7637 253.98 28.6381C252.597 28.5125 251.257 28.6412 249.958 29.0245C248.66 29.4077 247.45 30.0269 246.329 30.8822C245.207 31.7375 244.289 32.7967 243.575 34.0598C242.861 35.3229 242.427 36.6555 242.273 38.0577C242.118 39.4598 242.212 40.8158 242.553 42.1257C242.894 43.4355 243.475 44.6505 244.296 45.7704C245.117 46.8904 246.159 47.8074 247.422 48.5214C247.932 48.81 248.515 49.1127 249.169 49.4293C249.824 49.746 250.562 49.9771 251.384 50.1226C252.206 50.2681 253.121 50.2801 254.129 50.1586C255.138 50.0371 256.251 49.6825 257.47 49.0948L259.603 55.6727Z" fill="#04182D"/>
<path d="M272.752 75.1175L267.666 70.3871L291.318 44.9568L296.404 49.6872L272.752 75.1175Z" fill="#04182D"/>
<path d="M298.568 109.1L295.814 104.982L304.502 82.9048L288.297 93.742L284.153 87.5449L313.021 68.2388L315.698 72.2419L306.741 94.6657L323.292 83.5968L327.436 89.794L298.568 109.1Z" fill="#04182D"/>
<path d="M311.57 142.312L305.45 123.705L338.44 112.854L344.56 131.461L338.446 133.472L334.496 121.463L326.886 123.966L330.373 134.567L324.831 136.39L321.344 125.789L313.734 128.292L317.684 140.301L311.57 142.312Z" fill="#04182D"/>
<path d="M8.28638 248.382L5.8035 241.254L16.4437 230.977L14.9204 226.604L2.23915 231.021L0 224.593L32.7965 213.169L37.092 225.501C37.5286 226.754 37.6826 228.041 37.5539 229.36C37.4252 230.68 37.0464 231.915 36.4175 233.066C35.7886 234.217 34.9483 235.253 33.8965 236.175C32.8448 237.097 31.6192 237.802 30.2199 238.29C28.4707 238.899 26.7255 239.074 24.9842 238.814C23.2429 238.554 21.6621 237.887 20.2418 236.813L8.28638 248.382ZM28.0112 231.949C28.4485 231.797 28.8579 231.564 29.2393 231.252C29.6208 230.939 29.9407 230.59 30.1991 230.206C30.4576 229.822 30.6326 229.41 30.7243 228.969C30.816 228.528 30.7959 228.119 30.6639 227.74L28.6075 221.836L21.3923 224.35L23.4486 230.253C23.5807 230.632 23.8195 230.966 24.165 231.254C24.5106 231.542 24.8967 231.759 25.3234 231.905C25.75 232.05 26.2026 232.13 26.6812 232.143C27.1597 232.156 27.6031 232.091 28.0112 231.949V231.949Z" fill="#04182D"/>
<path d="M29.0127 284.412L18.2058 268.076L47.1709 248.915L57.9777 265.251L52.6096 268.802L45.6349 258.259L38.9536 262.679L45.1107 271.986L40.2446 275.205L34.0875 265.898L27.4062 270.318L34.3809 280.861L29.0127 284.412Z" fill="#04182D"/>
<path d="M65.9935 308.394C64.9209 309.547 63.7226 310.393 62.3987 310.932C61.0747 311.471 59.7082 311.738 58.2992 311.734C56.8902 311.73 55.5098 311.457 54.1579 310.916C52.8061 310.375 51.5765 309.589 50.4692 308.559C49.4523 307.612 48.6617 306.581 48.0974 305.466C47.5331 304.35 47.1802 303.189 47.0385 301.982C46.8969 300.774 46.9564 299.544 47.2172 298.289C47.4779 297.035 47.9257 295.817 48.5604 294.637L55.0585 296.763C54.4643 297.854 54.1394 298.996 54.0839 300.189C54.0285 301.381 54.4979 302.44 55.4922 303.365C55.8312 303.681 56.2506 303.955 56.7504 304.188C57.2503 304.422 57.7526 304.573 58.2575 304.642C58.7624 304.711 59.2637 304.682 59.7615 304.555C60.2594 304.428 60.687 304.173 61.0446 303.788C61.5493 303.246 61.7323 302.562 61.5934 301.737C61.4546 300.912 61.1813 299.994 60.7736 298.982C60.366 297.97 59.9115 296.872 59.4103 295.689C58.9091 294.505 58.5704 293.284 58.3941 292.023C58.2177 290.762 58.2915 289.471 58.6153 288.149C58.9392 286.827 59.711 285.51 60.9308 284.2C61.8772 283.183 62.9785 282.373 64.2347 281.771C65.4909 281.169 66.7832 280.811 68.1115 280.698C69.4399 280.585 70.7558 280.734 72.0593 281.146C73.3628 281.558 74.5456 282.258 75.6077 283.246C77.3704 284.887 78.427 286.788 78.7776 288.948C79.1283 291.109 78.8402 293.276 77.9135 295.45L71.2506 293.298C71.6377 292.519 71.8212 291.699 71.8012 290.837C71.7811 289.975 71.4435 289.239 70.7881 288.629C70.065 287.956 69.2291 287.642 68.2806 287.687C67.332 287.732 66.5318 288.105 65.8798 288.805C65.3751 289.348 65.2026 290.02 65.3625 290.823C65.5224 291.625 65.8114 292.527 66.2296 293.527C66.6478 294.528 67.1075 295.62 67.6087 296.803C68.1099 297.987 68.4433 299.214 68.6092 300.486C68.775 301.758 68.6907 303.061 68.3563 304.394C68.022 305.728 67.2344 307.061 65.9935 308.394V308.394Z" fill="#04182D"/>
<path d="M142.162 318.704L117.368 346.99L113.858 345.806L111.231 308.265L118.558 310.738L120.04 333.279L134.879 316.246L142.162 318.704Z" fill="#04182D"/>
<path d="M175.436 356.444L168.232 355.909L165.955 349.054L153.671 348.143L150.453 354.59L143.157 354.049L160.226 320.49L163.551 320.737L175.436 356.444ZM164.064 343.249L160.916 333.729L156.259 342.67L164.064 343.249Z" fill="#04182D"/>
<path d="M224.815 341.914C223.955 343.747 223.036 345.245 222.059 346.408C221.083 347.572 220.071 348.506 219.025 349.21C217.979 349.915 216.903 350.444 215.795 350.799C214.688 351.153 213.592 351.45 212.506 351.689C210.155 352.207 207.845 352.233 205.578 351.769C203.31 351.304 201.235 350.457 199.352 349.228C197.469 347.999 195.843 346.429 194.474 344.517C193.105 342.606 192.155 340.445 191.624 338.033C191.099 335.651 191.055 333.298 191.492 330.973C191.928 328.649 192.742 326.533 193.935 324.627C195.127 322.721 196.654 321.08 198.517 319.706C200.38 318.332 202.487 317.386 204.838 316.868C205.894 316.636 207.059 316.474 208.335 316.382C209.611 316.291 210.912 316.352 212.24 316.566C213.567 316.779 214.9 317.197 216.238 317.819C217.576 318.441 218.835 319.349 220.015 320.543L216.201 326.267C215.423 325.458 214.579 324.854 213.669 324.454C212.759 324.054 211.862 323.785 210.978 323.648C210.094 323.51 209.249 323.475 208.442 323.542C207.635 323.609 206.945 323.706 206.372 323.832C204.955 324.144 203.69 324.715 202.577 325.545C201.463 326.375 200.552 327.366 199.841 328.518C199.131 329.67 198.644 330.939 198.38 332.325C198.116 333.711 198.14 335.112 198.452 336.529C198.764 337.946 199.331 339.228 200.152 340.375C200.974 341.521 201.949 342.468 203.078 343.216C204.206 343.963 205.45 344.479 206.809 344.765C208.168 345.05 209.556 345.037 210.973 344.725C211.546 344.599 212.181 344.435 212.88 344.234C213.578 344.033 214.282 343.712 214.991 343.271C215.7 342.83 216.389 342.228 217.059 341.464C217.728 340.7 218.32 339.693 218.835 338.442L224.815 341.914Z" fill="#04182D"/>
<path d="M270.586 319.365C270.301 321.37 269.862 323.072 269.27 324.471C268.677 325.87 267.984 327.059 267.191 328.039C266.398 329.02 265.524 329.842 264.569 330.506C263.614 331.169 262.653 331.775 261.686 332.321C259.59 333.506 257.389 334.209 255.085 334.43C252.781 334.651 250.549 334.45 248.388 333.827C246.228 333.205 244.213 332.181 242.343 330.755C240.474 329.33 238.931 327.542 237.716 325.392C236.516 323.269 235.783 321.032 235.519 318.682C235.254 316.331 235.412 314.07 235.993 311.898C236.573 309.726 237.552 307.71 238.93 305.849C240.308 303.989 242.044 302.467 244.141 301.282C245.081 300.75 246.148 300.253 247.341 299.792C248.534 299.33 249.796 299.007 251.128 298.822C252.459 298.636 253.856 298.645 255.317 298.847C256.779 299.049 258.249 299.548 259.727 300.344L257.761 306.934C256.779 306.389 255.795 306.059 254.808 305.944C253.82 305.828 252.884 305.834 251.999 305.962C251.114 306.09 250.295 306.304 249.543 306.605C248.792 306.906 248.16 307.201 247.65 307.49C246.387 308.204 245.345 309.121 244.524 310.241C243.703 311.361 243.122 312.576 242.781 313.885C242.44 315.195 242.346 316.551 242.501 317.953C242.655 319.356 243.089 320.688 243.803 321.951C244.517 323.214 245.435 324.274 246.556 325.129C247.678 325.984 248.888 326.603 250.186 326.987C251.484 327.37 252.825 327.499 254.208 327.373C255.591 327.247 256.914 326.827 258.177 326.114C258.687 325.825 259.247 325.482 259.856 325.085C260.465 324.687 261.043 324.174 261.592 323.545C262.141 322.916 262.623 322.138 263.039 321.211C263.455 320.284 263.725 319.148 263.85 317.8L270.586 319.365Z" fill="#04182D"/>
<path d="M296.72 306.26L291.634 310.99L267.982 285.56L273.068 280.829L296.72 306.26Z" fill="#04182D"/>
<path d="M327.821 266.072L325.067 270.19L301.346 270.592L317.55 281.43L313.406 287.627L284.537 268.321L287.215 264.317L311.36 264.031L294.808 252.962L298.953 246.765L327.821 266.072Z" fill="#04182D"/>
<path d="M345 224.292L338.88 242.899L305.889 232.048L312.01 213.441L318.124 215.452L314.174 227.461L321.784 229.964L325.271 219.363L330.813 221.186L327.326 231.787L334.936 234.29L338.886 222.281L345 224.292Z" fill="#04182D"/>
<path fill-rule="evenodd" clip-rule="evenodd" d="M10.4807 150.172C8.95445 159.211 8.19132 168.422 8.19132 177.804C8.19132 187.238 8.96317 196.5 10.5068 205.589H14.5493C12.9662 196.505 12.1747 187.243 12.1747 177.804C12.1747 168.417 12.9574 159.207 14.5228 150.172H10.4807ZM330.372 150.172H334.414C335.941 159.211 336.704 168.422 336.704 177.804C336.704 187.238 335.931 196.5 334.388 205.589H330.346C331.929 196.505 332.721 187.243 332.721 177.804C332.721 168.417 331.938 159.207 330.372 150.172V150.172Z" fill="#04182D"/>
</svg>
